# xmcd CD Database Entry
#
# Track frame offsets:
# 150
# 18622
# 35545
# 59312
# 75030
# 90687
# 115037
# 130600
# 144585
# 164120
# 178300
# 196110
#
# Disc length: 2944 seconds
#
# Revision: 4
# Processed by: cddbd v1.4PL0 Copyright (c) Steve Scherf et al.
# Submitted via: tcd 2.0b
#
DISCID=9a0b7e0c
DTITLE=Kennedy Rose - Walk the Line
DYEAR=1900
DGENRE=
TTITLE0=She Walks the Line
TTITLE1=Real World
TTITLE2=Iorn Horse
TTITLE3=Without Your Love
TTITLE4=Island Home
TTITLE5=White Horse
TTITLE6=Walls
TTITLE7=Safe in the Arms
TTITLE8=Love Makes No Promises
TTITLE9=The Sins of Our Fathers
TTITLE10=Surrender
TTITLE11=Friends
EXTD=
EXTT0=
EXTT1=
EXTT2=
EXTT3=
EXTT4=
EXTT5=
EXTT6=
EXTT7=
EXTT8=
EXTT9=
EXTT10=
EXTT11=
PLAYORDER=
